<?xml version="1.0" standalone="no"?>
<!DOCTYPE svg PUBLIC "-//W3C//DTD SVG 20010904//EN"
 "http://www.w3.org/TR/2001/REC-SVG-20010904/DTD/svg10.dtd">
<svg version="1.0" xmlns="http://www.w3.org/2000/svg"
 width="450.000000pt" height="450.000000pt" viewBox="0 0 450.000000 450.000000"
 preserveAspectRatio="xMidYMid meet">
<metadata>
Created by potrace 1.11, written by Peter Selinger 2001-2013
</metadata>
<g transform="translate(0.000000,450.000000) scale(0.100000,-0.100000)"
fill="#000000" stroke="none">
<path d="M550 4234 c-179 -47 -322 -179 -382 -351 l-23 -68 0 -1565 0 -1565
23 -68 c46 -132 144 -245 266 -306 129 -65 18 -61 1816 -61 1798 0 1687 -4
1816 61 122 61 220 174 266 306 l23 68 0 1565 0 1565 -23 68 c-61 174 -205
305 -387 352 -87 22 -3310 22 -3395 -1z m932 -771 c107 -51 176 -133 204 -243
52 -204 -99 -415 -315 -439 -171 -19 -324 58 -397 200 -39 76 -45 199 -15 280
38 99 130 184 240 221 84 28 200 20 283 -19z m1853 7 c83 -32 173 -122 204
-205 32 -85 27 -207 -13 -284 -139 -272 -553 -270 -686 3 -39 80 -47 153 -26
236 33 129 133 230 265 267 66 18 183 10 256 -17z m-923 -892 c75 -35 138 -94
179 -170 32 -59 34 -69 34 -158 0 -89 -2 -99 -34 -158 -41 -75 -103 -135 -179
-170 -50 -24 -69 -27 -162 -27 -93 0 -112 3 -162 27 -76 35 -138 95 -179 170
-32 59 -34 69 -34 158 0 84 3 101 28 148 52 98 129 165 230 198 69 23 210 14
279 -18z m-929 -891 c235 -107 286 -402 101 -581 -189 -184 -533 -111 -625
133 -30 81 -24 204 15 280 92 179 321 254 509 168z m1874 -3 c68 -33 135 -98
169 -165 39 -76 45 -199 15 -280 -75 -199 -331 -296 -526 -200 -107 53 -173
132 -201 241 -42 163 44 334 203 407 102 47 241 46 340 -3z"/>
</g>
</svg>
